{"title":"Cosmonaut Polyakov - Dana Ranga, 2007","uid":6819454,"size":4598167552,"categoryP":"video","categoryS":"movies","magnet":"?xt=urn:btih:f77f95cc8c8ba91ff1e4c578f71a2ad96cd970ff&amp;dn=Cosmonaut+Polyakov+-+Dana+Ranga%2C+2007&amp;tr=udp%3A%2F%2Ftracker.openbittorrent.com%3A80&amp;tr=udp%3A%2F%2Fopen.demonii.com%3A1337&amp;tr=udp%3A%2F%2Ftracker.coppersurfer.tk%3A6969&amp;tr=udp%3A%2F%2Fexodus.desync.com%3A6969","seeders":0,"leechers":1,"uploader":"abenteuerer","files":11,"time":1321357313,"description":"An orphan child that dreams about the Cosmos, a doctor who donates\nblood for an experiment oninterplanetary flights, a scientist who proves\nthat man can fly to Mars: all these are aspects of cosmonaut nr. 66,\nValery Polyakov, the man with the longest spaceflight ever. Now he\nspeaks for the very first time about himself and life in space.\n &lt;a href=&quot;\nhttp://img242.imageshack.us/img242/9394/vlcsnap9467681.png&quot; rel=&quot;nofollow&quot; target=&quot;_NEW&quot;&gt;\nhttp://img242.imageshack.us/img242/9394/vlcsnap9467681.png&lt;/a&gt; &lt;a href=&quot;\nhttp://img403.imageshack.us/img403/816/vlcsnap9467529.png&quot; rel=&quot;nofollow&quot; target=&quot;_NEW&quot;&gt;\nhttp://img403.imageshack.us/img403/816/vlcsnap9467529.png&lt;/a&gt; &lt;a href=&quot;\nhttp://img403.imageshack.us/img403/8949/vlcsnap9467106.png&quot; rel=&quot;nofollow&quot; target=&quot;_NEW&quot;&gt;\nhttp://img403.imageshack.us/img403/8949/vlcsnap9467106.png&lt;/a&gt;\n\n\n   Video #224\n      ID : 224 (0xE0)\n      Format : MPEG Video\n      Format version : Version 2\n      Format profile : Main@Main\n      Format settings, BVOP : Yes\n      Format settings, Matrix : Custom\n      Format settings, GOP : M=3, N=12\n      Bit rate mode : Constant\n      Bit rate : 5 250 Kbps\n      Width : 720 pixels\n      Height : 576 pixels\n      Display aspect ratio : 4:3\n      Frame rate : 25.000 fps\n      Standard : PAL\n      Color space : YUV\n      Chroma subsampling : 4:2:0\n      Bit depth : 8 bits\n      Scan type : Interlaced\n      Scan order : Top Field First\n      Compression mode : Lossy\n      Bits/(Pixel*Frame) : 0.506\n      Stream size : 962 MiB (94%)\n   Audio #189-128\n      ID : 189 (0xBD)-128 (0x80)\n      Format : AC-3\n      Format/Info : Audio Coding 3\n      Mode extension : CM (complete main)\n      Muxing mode : DVD-Video\n      Bit rate mode : Constant\n      Bit rate : 224 Kbps\n      Channel(s) : 2 channels\n      Channel positions : Front: L R\n      Sampling rate : 48.0 KHz\n      Bit depth : 16 bits\n      Compression mode : Lossy\n      Delay relative to video : -528ms\n      Stream size : 41.0 MiB (4%)","torrent":{"xt":"urn:btih:f77f95cc8c8ba91ff1e4c578f71a2ad96cd970ff","amp;dn":"Cosmonaut+Polyakov+-+Dana+Ranga%2C+2007","amp;tr":["udp%3A%2F%2Ftracker.openbittorrent.com%3A80","udp%3A%2F%2Fopen.demonii.com%3A1337","udp%3A%2F%2Ftracker.coppersurfer.tk%3A6969","udp%3A%2F%2Fexodus.desync.com%3A6969"],"infoHash":"f77f95cc8c8ba91ff1e4c578f71a2ad96cd970ff","infoHashBuffer":{"type":"Buffer","data":[247,127,149,204,140,139,169,31,241,228,197,120,247,26,42,217,108,217,112,255]},"announce":[],"urlList":[]}}